<svg width="21" height="20" viewBox="0 0 21 20" fill="none" xmlns="http://www.w3.org/2000/svg">
<path d="M10.4102 19.9766C4.89453 19.9766 0.410156 15.5 0.410156 9.99219C0.410156 4.47656 4.89453 0 10.4102 0C15.9258 0 20.4102 4.47656 20.4102 9.98438C20.4102 15.4922 15.9258 19.9766 10.4102 19.9766ZM18.8398 11.3516C18.5508 11.2578 16.1992 10.5625 13.5195 10.9844C14.6367 14.0469 15.0898 16.5469 15.1758 17.0625C17.0977 15.7734 18.4648 13.7266 18.8398 11.3516ZM13.7461 17.8516C13.6211 17.1016 13.1211 14.4922 11.9258 11.3828C11.9102 11.3906 11.8867 11.3984 11.8711 11.3984C7.05078 13.0781 5.32422 16.4141 5.16797 16.7266C6.61328 17.8516 8.43359 18.5234 10.4102 18.5234C11.5898 18.5312 12.7227 18.2891 13.7461 17.8516ZM4.06641 15.7031C4.26172 15.375 6.60547 11.5 11.0117 10.0703C11.1211 10.0312 11.2383 10 11.3477 9.96875C11.1367 9.48438 10.9023 9 10.6523 8.52344C6.38672 9.79688 2.24609 9.74219 1.87109 9.73438C1.87109 9.82031 1.86328 9.90625 1.86328 9.99219C1.87109 12.1875 2.69922 14.1875 4.06641 15.7031ZM2.05078 8.25C2.43359 8.25781 5.94922 8.27344 9.94922 7.21094C8.53516 4.69531 7.00391 2.58594 6.78516 2.28125C4.38672 3.40625 2.60547 5.60938 2.05078 8.25ZM8.41016 1.70312C8.64453 2.01562 10.1992 4.125 11.5977 6.69531C14.6367 5.55469 15.918 3.83594 16.0742 3.61719C14.5664 2.28125 12.582 1.46875 10.4102 1.46875C9.72266 1.46875 9.05078 1.55469 8.41016 1.70312ZM17.0195 4.60156C16.8398 4.84375 15.4102 6.67969 12.2539 7.96875C12.4492 8.375 12.6445 8.78906 12.8242 9.20312C12.8867 9.35156 12.9492 9.5 13.0117 9.64062C15.8555 9.28125 18.6758 9.85938 18.957 9.91406C18.9336 7.90625 18.2148 6.05469 17.0195 4.60156Z" fill="#B2215A"/>
</svg>
