<svg width="21" height="20" viewBox="0 0 21 20" fill="none" xmlns="http://www.w3.org/2000/svg">
<path d="M20.35 5.8767C20.3019 4.81185 20.1299 4.08327 19.8859 3.44676C19.6298 2.79023 19.2897 2.22978 18.7336 1.67734C18.1775 1.1249 17.6214 0.776621 16.9653 0.52442C16.3292 0.276221 15.601 0.108086 14.5368 0.060048C13.4686 0.0120096 13.1285 0 10.416 0C7.69942 0 7.35936 0.0120096 6.29514 0.060048C5.23093 0.108086 4.50279 0.280224 3.86666 0.52442C3.20653 0.780625 2.64641 1.1209 2.0943 1.67734C1.54219 2.23379 1.19412 2.79023 0.942074 3.44676C0.698025 4.08327 0.52599 4.81185 0.477981 5.8767C0.429971 6.94556 0.417969 7.28583 0.417969 10C0.417969 12.7182 0.429971 13.0584 0.477981 14.1233C0.52599 15.1882 0.698025 15.9167 0.942074 16.5532C1.19812 17.2098 1.53819 17.7702 2.0943 18.3227C2.64641 18.8791 3.20653 19.2234 3.86266 19.4756C4.49879 19.7238 5.22693 19.8919 6.29114 19.94C7.35936 19.988 7.69943 20 10.412 20C13.1285 20 13.4686 19.988 14.5328 19.94C15.597 19.8919 16.3252 19.7198 16.9613 19.4756C17.6174 19.2194 18.1775 18.8791 18.7296 18.3227C19.2817 17.7662 19.6298 17.2098 19.8819 16.5532C20.1299 15.9167 20.2979 15.1882 20.346 14.1233C20.394 13.0544 20.406 12.7142 20.406 10C20.406 7.28583 20.398 6.94155 20.35 5.8767ZM18.5536 14.0432C18.5096 15.02 18.3456 15.5524 18.2095 15.9007C18.0295 16.3651 17.8094 16.7014 17.4574 17.0536C17.1053 17.4059 16.7732 17.6181 16.3051 17.8062C15.9531 17.9424 15.421 18.1065 14.4488 18.1505C13.3966 18.1986 13.0805 18.2106 10.408 18.2106C7.73543 18.2106 7.41937 18.1986 6.36716 18.1505C5.39096 18.1065 4.85886 17.9424 4.51079 17.8062C4.04669 17.6261 3.71063 17.4059 3.35856 17.0536C3.00649 16.7014 2.79444 16.3691 2.60641 15.9007C2.47038 15.5484 2.30635 15.016 2.26234 14.0432C2.21433 12.9904 2.20233 12.6741 2.20233 10C2.20233 7.32586 2.21433 7.00961 2.26234 5.95677C2.30635 4.97998 2.47038 4.44756 2.60641 4.09928C2.78644 3.63491 3.00649 3.29864 3.35856 2.94636C3.71063 2.59408 4.04269 2.38191 4.51079 2.19376C4.86286 2.05765 5.39496 1.89351 6.36716 1.84948C7.41937 1.80144 7.73543 1.78943 10.408 1.78943C13.0805 1.78943 13.3966 1.80144 14.4488 1.84948C15.425 1.89351 15.9571 2.05765 16.3051 2.19376C16.7692 2.3739 17.1053 2.59408 17.4574 2.94636C17.8094 3.29864 18.0215 3.6309 18.2095 4.09928C18.3456 4.45156 18.5096 4.98399 18.5536 5.95677C18.6016 7.00961 18.6136 7.32586 18.6136 10C18.6136 12.6741 18.5976 12.9904 18.5536 14.0432Z" fill="url(#paint0_linear_23179_15938)"/>
<path d="M10.408 4.85987C7.56744 4.85987 5.27098 7.16171 5.27098 9.99999C5.27098 12.8423 7.57144 15.1401 10.408 15.1401C13.2446 15.1401 15.545 12.8343 15.545 9.99999C15.545 7.15771 13.2486 4.85987 10.408 4.85987ZM10.408 13.3347C8.56764 13.3347 7.07534 11.8415 7.07534 9.99999C7.07534 8.15851 8.56764 6.66532 10.408 6.66532C12.2484 6.66532 13.7407 8.15851 13.7407 9.99999C13.7407 11.8415 12.2484 13.3347 10.408 13.3347Z" fill="url(#paint1_linear_23179_15938)"/>
<path d="M15.7451 5.86068C16.4079 5.86068 16.9453 5.32299 16.9453 4.65972C16.9453 3.99645 16.4079 3.45876 15.7451 3.45876C15.0822 3.45876 14.5448 3.99645 14.5448 4.65972C14.5448 5.32299 15.0822 5.86068 15.7451 5.86068Z" fill="#BC30A0"/>
<defs>
<linearGradient id="paint0_linear_23179_15938" x1="17.3189" y1="1.52934" x2="2.85017" y2="19.2563" gradientUnits="userSpaceOnUse">
<stop stop-color="#AE3DAE"/>
<stop offset="0.0468721" stop-color="#B23BA6"/>
<stop offset="0.1216" stop-color="#BD368E"/>
<stop offset="0.2148" stop-color="#CE2E69"/>
<stop offset="0.3216" stop-color="#E62335"/>
<stop offset="0.418" stop-color="#FF1800"/>
</linearGradient>
<linearGradient id="paint1_linear_23179_15938" x1="15.1782" y1="1.97952" x2="4.95243" y2="19.1622" gradientUnits="userSpaceOnUse">
<stop stop-color="#E12F6A"/>
<stop offset="0.1705" stop-color="#EA3751"/>
<stop offset="0.3563" stop-color="#F13D3E"/>
<stop offset="0.5467" stop-color="#F64133"/>
<stop offset="0.7469" stop-color="#F7422F"/>
<stop offset="0.7946" stop-color="#F74C2F"/>
<stop offset="0.8743" stop-color="#F7652F"/>
<stop offset="0.9757" stop-color="#F78F2E"/>
<stop offset="1" stop-color="#F79A2E"/>
</linearGradient>
</defs>
</svg>
