<svg width="19" height="18" viewBox="0 0 19 18" fill="none" xmlns="http://www.w3.org/2000/svg">
<path d="M15.747 15.3371H13.08V11.1603C13.08 10.1643 13.0622 8.8822 11.6929 8.8822C10.3038 8.8822 10.0912 9.9674 10.0912 11.0878V15.3368H7.42425V6.74773H9.98454V7.92152H10.0204C10.2766 7.48341 10.6469 7.12299 11.0917 6.87866C11.5366 6.63432 12.0394 6.51523 12.5466 6.53405C15.2498 6.53405 15.7481 8.31211 15.7481 10.6252L15.747 15.3371ZM4.41488 5.57372C3.56009 5.57386 2.86702 4.881 2.86687 4.02621C2.86673 3.17142 3.55952 2.47835 4.41431 2.47821C5.2691 2.478 5.96217 3.17086 5.96231 4.02565C5.96239 4.43613 5.7994 4.82984 5.5092 5.12016C5.219 5.41047 4.82536 5.57362 4.41488 5.57372ZM5.74842 15.3372H3.07859V6.74773H5.74835V15.3371L5.74842 15.3372ZM17.0766 0.00131006H1.73843C1.01351 -0.0068462 0.419016 0.573865 0.410156 1.29879V16.701C0.418734 17.4262 1.01316 18.0075 1.73836 17.9999H17.0766C17.8034 18.0089 18.4001 17.4276 18.4102 16.701V1.29759C18.3998 0.571263 17.803 -0.00937745 17.0766 0.000114742" fill="#0A66C2"/>
</svg>
